<mxfile host="app.diagrams.net" agent="Mozilla/5.0 (X11; Linux x86_64; rv:136.0) Gecko/20100101 Firefox/136.0" version="26.1.1">
  <diagram name="Page-1" id="RPSWfFjgv1BxWq0HOBP9">
    <mxGraphModel dx="1430" dy="740" grid="1" gridSize="10" guides="1" tooltips="1" connect="1" arrows="1" fold="1" page="1" pageScale="1" pageWidth="850" pageHeight="1100" math="0" shadow="0">
      <root>
        <mxCell id="0" />
        <mxCell id="1" parent="0" />
        <mxCell id="_18XzDl7RU0q9ULAyhAN-1" value="&lt;font style=&quot;font-size: 32px;&quot;&gt;A&lt;/font&gt;" style="ellipse;whiteSpace=wrap;html=1;aspect=fixed;shadow=1;" vertex="1" parent="1">
          <mxGeometry x="110" y="350" width="80" height="80" as="geometry" />
        </mxCell>
        <mxCell id="_18XzDl7RU0q9ULAyhAN-2" value="&lt;font style=&quot;font-size: 32px;&quot;&gt;B&lt;/font&gt;" style="ellipse;whiteSpace=wrap;html=1;aspect=fixed;shadow=1;" vertex="1" parent="1">
          <mxGeometry x="540" y="350" width="80" height="80" as="geometry" />
        </mxCell>
        <mxCell id="_18XzDl7RU0q9ULAyhAN-3" value="" style="endArrow=none;html=1;rounded=0;strokeWidth=5;curved=1;shadow=1;" edge="1" parent="1" source="_18XzDl7RU0q9ULAyhAN-6" target="_18XzDl7RU0q9ULAyhAN-1">
          <mxGeometry width="50" height="50" relative="1" as="geometry">
            <mxPoint x="260" y="170" as="sourcePoint" />
            <mxPoint x="240" y="213" as="targetPoint" />
            <Array as="points">
              <mxPoint x="300" y="250" />
              <mxPoint x="240" y="250" />
              <mxPoint x="230" y="330" />
            </Array>
          </mxGeometry>
        </mxCell>
        <mxCell id="_18XzDl7RU0q9ULAyhAN-9" value="&lt;font style=&quot;font-size: 16px;&quot;&gt;Physical link&lt;/font&gt;" style="edgeLabel;html=1;align=center;verticalAlign=middle;resizable=0;points=[];rotation=-45;" vertex="1" connectable="0" parent="_18XzDl7RU0q9ULAyhAN-3">
          <mxGeometry x="-0.2374" y="6" relative="1" as="geometry">
            <mxPoint x="-30" as="offset" />
          </mxGeometry>
        </mxCell>
        <mxCell id="_18XzDl7RU0q9ULAyhAN-4" value="" style="endArrow=none;html=1;rounded=0;strokeWidth=5;curved=1;shadow=1;" edge="1" parent="1" source="_18XzDl7RU0q9ULAyhAN-2" target="_18XzDl7RU0q9ULAyhAN-6">
          <mxGeometry width="50" height="50" relative="1" as="geometry">
            <mxPoint x="473" y="306" as="sourcePoint" />
            <mxPoint x="380" y="180" as="targetPoint" />
            <Array as="points">
              <mxPoint x="540" y="300" />
              <mxPoint x="480" y="310" />
              <mxPoint x="480" y="230" />
              <mxPoint x="440" y="240" />
            </Array>
          </mxGeometry>
        </mxCell>
        <mxCell id="_18XzDl7RU0q9ULAyhAN-10" value="&lt;font style=&quot;font-size: 16px;&quot;&gt;Physical link&lt;/font&gt;" style="edgeLabel;html=1;align=center;verticalAlign=middle;resizable=0;points=[];rotation=45;" vertex="1" connectable="0" parent="_18XzDl7RU0q9ULAyhAN-4">
          <mxGeometry x="-0.4746" y="1" relative="1" as="geometry">
            <mxPoint x="8" y="-34" as="offset" />
          </mxGeometry>
        </mxCell>
        <mxCell id="_18XzDl7RU0q9ULAyhAN-6" value="&lt;font style=&quot;font-size: 32px;&quot;&gt;AP&lt;/font&gt;" style="ellipse;whiteSpace=wrap;html=1;aspect=fixed;shadow=1;fillColor=#6a00ff;fontColor=#ffffff;strokeColor=#3700CC;" vertex="1" parent="1">
          <mxGeometry x="330" y="140" width="80" height="80" as="geometry" />
        </mxCell>
        <mxCell id="_18XzDl7RU0q9ULAyhAN-7" value="" style="endArrow=none;html=1;rounded=0;strokeWidth=5;dashed=1;shadow=1;" edge="1" parent="1" source="_18XzDl7RU0q9ULAyhAN-2" target="_18XzDl7RU0q9ULAyhAN-1">
          <mxGeometry width="50" height="50" relative="1" as="geometry">
            <mxPoint x="340" y="500" as="sourcePoint" />
            <mxPoint x="252" y="570" as="targetPoint" />
          </mxGeometry>
        </mxCell>
        <mxCell id="_18XzDl7RU0q9ULAyhAN-8" value="&lt;font style=&quot;font-size: 16px;&quot;&gt;Logical link&lt;/font&gt;" style="edgeLabel;html=1;align=center;verticalAlign=middle;resizable=0;points=[];" vertex="1" connectable="0" parent="_18XzDl7RU0q9ULAyhAN-7">
          <mxGeometry x="0.0629" y="-3" relative="1" as="geometry">
            <mxPoint x="16" y="-17" as="offset" />
          </mxGeometry>
        </mxCell>
        <mxCell id="_18XzDl7RU0q9ULAyhAN-11" value="&lt;font style=&quot;font-size: 32px;&quot;&gt;A&lt;/font&gt;" style="ellipse;whiteSpace=wrap;html=1;aspect=fixed;shadow=1;fillColor=#d80073;fontColor=#ffffff;strokeColor=#A50040;" vertex="1" parent="1">
          <mxGeometry x="100" y="580" width="80" height="80" as="geometry" />
        </mxCell>
        <mxCell id="_18XzDl7RU0q9ULAyhAN-12" value="&lt;font style=&quot;font-size: 32px;&quot;&gt;B&lt;/font&gt;" style="ellipse;whiteSpace=wrap;html=1;aspect=fixed;shadow=1;fillColor=#d80073;fontColor=#ffffff;strokeColor=#A50040;" vertex="1" parent="1">
          <mxGeometry x="440" y="540" width="80" height="80" as="geometry" />
        </mxCell>
        <mxCell id="_18XzDl7RU0q9ULAyhAN-13" value="" style="rounded=1;whiteSpace=wrap;html=1;" vertex="1" parent="1">
          <mxGeometry x="260" y="810" width="390" height="190" as="geometry" />
        </mxCell>
        <mxCell id="_18XzDl7RU0q9ULAyhAN-14" value="" style="endArrow=none;html=1;rounded=0;strokeWidth=5;dashed=1;shadow=1;curved=1;" edge="1" parent="1" source="_18XzDl7RU0q9ULAyhAN-12" target="_18XzDl7RU0q9ULAyhAN-11">
          <mxGeometry width="50" height="50" relative="1" as="geometry">
            <mxPoint x="545" y="740" as="sourcePoint" />
            <mxPoint x="195" y="740" as="targetPoint" />
            <Array as="points">
              <mxPoint x="360" y="550" />
              <mxPoint x="320" y="640" />
            </Array>
          </mxGeometry>
        </mxCell>
        <mxCell id="_18XzDl7RU0q9ULAyhAN-16" value="&lt;font style=&quot;font-size: 16px;&quot;&gt;A automatically discovers B over the link, and vice-versa.&lt;/font&gt;" style="text;html=1;align=center;verticalAlign=middle;whiteSpace=wrap;rounded=0;" vertex="1" parent="1">
          <mxGeometry x="225" y="660" width="215" height="30" as="geometry" />
        </mxCell>
        <mxCell id="_18XzDl7RU0q9ULAyhAN-17" value="" style="rounded=1;whiteSpace=wrap;html=1;glass=0;strokeColor=default;" vertex="1" parent="1">
          <mxGeometry x="20" y="740" width="370" height="180" as="geometry" />
        </mxCell>
        <mxCell id="_18XzDl7RU0q9ULAyhAN-19" value="&lt;font style=&quot;font-size: 16px;&quot;&gt;Network 1&lt;/font&gt;" style="text;html=1;align=center;verticalAlign=middle;whiteSpace=wrap;rounded=0;" vertex="1" parent="1">
          <mxGeometry x="90" y="750" width="247.5" height="30" as="geometry" />
        </mxCell>
        <mxCell id="_18XzDl7RU0q9ULAyhAN-20" value="&lt;font style=&quot;font-size: 32px;&quot;&gt;A&lt;/font&gt;" style="ellipse;whiteSpace=wrap;html=1;aspect=fixed;shadow=1;fillColor=#d80073;fontColor=#ffffff;strokeColor=#A50040;" vertex="1" parent="1">
          <mxGeometry x="42.5" y="780" width="80" height="80" as="geometry" />
        </mxCell>
        <mxCell id="_18XzDl7RU0q9ULAyhAN-21" value="&lt;font style=&quot;font-size: 32px;&quot;&gt;B&lt;/font&gt;" style="ellipse;whiteSpace=wrap;html=1;aspect=fixed;shadow=1;fillColor=#d80073;fontColor=#ffffff;strokeColor=#A50040;" vertex="1" parent="1">
          <mxGeometry x="290" y="810" width="80" height="80" as="geometry" />
        </mxCell>
        <mxCell id="_18XzDl7RU0q9ULAyhAN-22" value="" style="endArrow=none;html=1;rounded=0;strokeWidth=5;dashed=1;shadow=1;curved=1;" edge="1" parent="1" source="_18XzDl7RU0q9ULAyhAN-21" target="_18XzDl7RU0q9ULAyhAN-20">
          <mxGeometry width="50" height="50" relative="1" as="geometry">
            <mxPoint x="487.5" y="990" as="sourcePoint" />
            <mxPoint x="137.5" y="990" as="targetPoint" />
            <Array as="points">
              <mxPoint x="200" y="800" />
            </Array>
          </mxGeometry>
        </mxCell>
        <mxCell id="_18XzDl7RU0q9ULAyhAN-25" value="&lt;font style=&quot;font-size: 16px;&quot;&gt;Network 2&lt;/font&gt;" style="text;html=1;align=center;verticalAlign=middle;whiteSpace=wrap;rounded=0;" vertex="1" parent="1">
          <mxGeometry x="390" y="820" width="247.5" height="30" as="geometry" />
        </mxCell>
        <mxCell id="_18XzDl7RU0q9ULAyhAN-26" value="&lt;font style=&quot;font-size: 32px;&quot;&gt;C&lt;/font&gt;" style="ellipse;whiteSpace=wrap;html=1;aspect=fixed;shadow=1;fillColor=#d80073;fontColor=#ffffff;strokeColor=#A50040;" vertex="1" parent="1">
          <mxGeometry x="523.75" y="890" width="80" height="80" as="geometry" />
        </mxCell>
        <mxCell id="_18XzDl7RU0q9ULAyhAN-27" value="" style="endArrow=none;html=1;rounded=0;strokeWidth=5;dashed=1;shadow=1;curved=1;" edge="1" parent="1" source="_18XzDl7RU0q9ULAyhAN-26" target="_18XzDl7RU0q9ULAyhAN-21">
          <mxGeometry width="50" height="50" relative="1" as="geometry">
            <mxPoint x="540" y="956" as="sourcePoint" />
            <mxPoint x="369" y="933" as="targetPoint" />
            <Array as="points">
              <mxPoint x="510" y="860" />
              <mxPoint x="410" y="990" />
            </Array>
          </mxGeometry>
        </mxCell>
        <mxCell id="_18XzDl7RU0q9ULAyhAN-28" value="wlan0" style="text;html=1;align=center;verticalAlign=middle;whiteSpace=wrap;rounded=0;" vertex="1" parent="1">
          <mxGeometry x="170" y="590" width="60" height="30" as="geometry" />
        </mxCell>
        <mxCell id="_18XzDl7RU0q9ULAyhAN-29" value="wlan0" style="text;html=1;align=center;verticalAlign=middle;whiteSpace=wrap;rounded=0;" vertex="1" parent="1">
          <mxGeometry x="390" y="570" width="60" height="30" as="geometry" />
        </mxCell>
        <mxCell id="_18XzDl7RU0q9ULAyhAN-30" value="eth0" style="text;html=1;align=center;verticalAlign=middle;whiteSpace=wrap;rounded=0;" vertex="1" parent="1">
          <mxGeometry x="302.5" y="890" width="60" height="30" as="geometry" />
        </mxCell>
        <mxCell id="_18XzDl7RU0q9ULAyhAN-33" value="eth0" style="text;html=1;align=center;verticalAlign=middle;whiteSpace=wrap;rounded=0;" vertex="1" parent="1">
          <mxGeometry x="510" y="860" width="60" height="30" as="geometry" />
        </mxCell>
        <mxCell id="_18XzDl7RU0q9ULAyhAN-34" value="wlan0" style="text;html=1;align=center;verticalAlign=middle;whiteSpace=wrap;rounded=0;" vertex="1" parent="1">
          <mxGeometry x="110" y="780" width="60" height="30" as="geometry" />
        </mxCell>
        <mxCell id="_18XzDl7RU0q9ULAyhAN-36" value="wlan0" style="text;html=1;align=center;verticalAlign=middle;whiteSpace=wrap;rounded=0;" vertex="1" parent="1">
          <mxGeometry x="260" y="800" width="60" height="30" as="geometry" />
        </mxCell>
      </root>
    </mxGraphModel>
  </diagram>
</mxfile>
